<?xml version="1.0" encoding="utf-8"?>
<!-- Generator: Adobe Illustrator 19.0.0, SVG Export Plug-In . SVG Version: 6.00 Build 0)  -->
<svg version="1.1" id="Laag_1" xmlns="http://www.w3.org/2000/svg" xmlns:xlink="http://www.w3.org/1999/xlink" x="0px" y="0px"
	 viewBox="0 0 20 20" style="enable-background:new 0 0 20 20;" xml:space="preserve">
<style type="text/css">
	.st0{fill:#FFFFFF;}
</style>
<g>
	<path class="st0" d="M11.6,7.1c0-0.5,0-0.8,0-1.3c0.5-0.1,1-0.1,1.4-0.3c0.7-0.2,1.4-0.5,1.4-1.4c0-0.9-0.7-1.3-1.4-1.3
		c-1.3-0.1-2.6,0-4,0.1C7.9,3.1,6.8,3.5,5.7,2.8C5,2.5,4.4,2.2,3.5,1.9C3.6,1.8,3.8,1.5,4,1.5c0.4-0.2,1-0.1,1.3-0.4
		c1-0.6,1.9-0.5,2.9-0.3c1.1,0.2,2.2,0.3,3.3,0.4c0.7,0.1,1.5,0,2.2,0.1c1.2,0.2,2,0.9,2.3,2.1c0.3,1.1-0.2,2-1,2.7
		C14.1,7,13,7.2,11.6,7.1z M6,1.6c1,0.9,1.3,0.9,2,0C7.3,1.6,6.8,1.6,6,1.6z"/>
	<path id="XMLID_6_" class="st0" d="M11.3,13.8c0.3-0.1,0.7-0.1,1-0.3c0.4-0.3,0.8-0.6,0.8-1c0-0.4-0.4-0.9-0.7-1.1
		c-0.3-0.2-0.8-0.2-1.3-0.3c-1.1,0-2.2,0.1-3.3-0.1c-0.9-0.1-1.8-0.5-2.5-1.1c-1.2-1-1-2.7,0.3-3.6c0.8-0.5,1.9-0.7,3-1.1
		c0,0.7,0,1.1,0,1.6c-0.4,0.1-1,0.2-1.4,0.4C6.9,7.8,6.6,8.3,6.2,8.7c0.5,0.3,0.9,0.8,1.4,1c0.7,0.2,1.5,0,2.2,0.1
		c0.9,0,1.9,0,2.7,0.2c1.2,0.3,1.9,1.5,1.8,2.9c-0.1,1.1-1.1,1.9-2.3,2C11.3,14.8,11.1,14.5,11.3,13.8z"/>
	<path id="XMLID_5_" class="st0" d="M8.9,14.1c-0.2,0.2-0.4,0.6-0.7,0.7c-0.6,0.3-1.3,0.5-1,1.2c0.2,0.4,0.8,0.9,1.3,1
		c1.1,0.2,2.2,0.1,3.4,0.3c0.4,0.1,0.8,0.4,1.1,0.8C11.5,18,9.9,18,8.4,17.9c-1.6-0.1-2.4-0.8-2.4-2c0-1.2,1.2-2.1,2.7-2.1
		C8.8,13.9,8.8,14,8.9,14.1z"/>
	<path id="XMLID_4_" class="st0" d="M10.6,12c0,1.5,0,2.9,0,4.3c-0.4,0-0.7,0-1,0c0-1.3,0-2.5,0-3.8C9.6,11.8,10,11.8,10.6,12z"/>
	<path id="XMLID_3_" class="st0" d="M9.7,4c0.4,0,0.7,0,1,0c0,1.6,0,3.2,0,4.8c-0.1,0.1-0.2,0.1-0.3,0.2c-0.2-0.2-0.7-0.4-0.7-0.7
		C9.7,6.9,9.7,5.4,9.7,4z"/>
	<path id="XMLID_2_" class="st0" d="M9.6,20c0-0.3-0.1-0.5-0.1-0.6c0-0.2,0-0.3,0-0.6c0.3,0,0.7,0,0.8,0.2c0.1,0.1,0.2,0.6,0.1,0.7
		C10.3,19.8,9.9,19.8,9.6,20z"/>
</g>
</svg>
